<svg xmlns="http://www.w3.org/2000/svg" aria-hidden="true" style="position:absolute;width:0;height:0;overflow:hidden">
  <defs>
    <symbol id="email" viewBox="0 0 43 32">
      <path
        d="M37 0H5C3 0 1 2 1 4v24c0 2 2 4 4 4h32c3 0 4-2 4-4V4c0-2-1-4-4-4zm0 9-15 8h-2L6 9 5 7c0-1 2-2 3-1l13 8 14-8a2 2 0 1 1 2 3z" />
    </symbol>
    <symbol id="phone" viewBox="0 0 32 32">
      <path
        d="m29 22-5-1-3 1-3 4c-5-3-9-7-12-12l4-3 1-3-1-5c0-2-2-3-3-3H4C2 0 0 2 0 4c1 15 13 27 28 28 2 0 4-2 4-4v-3c0-1-1-3-3-3z" />
    </symbol>
    <symbol id="person" viewBox="0 0 32 32">
      <path d="M16 16a5 5 0 1 0 0-11 5 5 0 0 0 0 11zm0 3c-4 0-11 1-11 5v1l2 2h18l2-2v-1c0-4-7-5-11-5z" />
    </symbol>
    <symbol id="Vector" viewBox="0 0 32 32">
      <path d="M27 4a3 3 0 0 1 5 2l-1 2-15 20a3 3 0 0 1-5 0L1 17a3 3 0 0 1 2-5 3 3 0 0 1 2 1l8 9L27 4z" />
    </symbol>
    <symbol id="Vector2" viewBox="0 0 32 32">
      <path d="m32 3-3-3-13 13L3 0 0 3l13 13L0 29l3 3 13-13 13 13 3-3-13-13L32 3z" />
    </symbol>
  </defs>
</svg>